# xmcd CD database file
#
# Track frame offsets:
#	150
#	23700
#	43875
#	65250
#	91275
#	109540
#	133575
#	157725
#	172425
#	205350
#	232350
#	259650
#
# Disc length: 3763 seconds
#
# Revision: 0
# Processed by: cddbd v1.5.1PL0 Copyright (c) Steve Scherf et al.
# Submitted via: CDex 1.51
#
DISCID=a70eb10c
DTITLE=Dick Katz - 3 Way Play
DYEAR=1900
DGENRE=Jazz
TTITLE0=Three Little Words
TTITLE1=Solar
TTITLE2=You're My Thrill
TTITLE3=Steeplechase
TTITLE4=The Little Things That Mean So Much
TTITLE5=Monk's Dream
TTITLE6=Limehouse Blues
TTITLE7=Star Crossed Lovers
TTITLE8=Blues In My Heart
TTITLE9=The Night Has A Thousand Eyes
TTITLE10=Samburan
TTITLE11=There Is No Greater Love
EXTD=
EXTT0=
EXTT1=
EXTT2=
EXTT3=
EXTT4=
EXTT5=
EXTT6=
EXTT7=
EXTT8=
EXTT9=
EXTT10=
EXTT11=
PLAYORDER=
